<?xml version="1.0" standalone="no"?>
<!DOCTYPE svg PUBLIC "-//W3C//DTD SVG 20010904//EN"
 "http://www.w3.org/TR/2001/REC-SVG-20010904/DTD/svg10.dtd">
<svg version="1.0" xmlns="http://www.w3.org/2000/svg"
 width="80.000000pt" height="80.000000pt" viewBox="0 0 80.000000 80.000000"
 preserveAspectRatio="xMidYMid meet">
<metadata>
Created by potrace 1.14, written by Peter Selinger 2001-2017
</metadata>
<g transform="translate(0.000000,80.000000) scale(0.100000,-0.100000)"
fill="#000000" stroke="none">
<path d="M106 663 c-59 -15 -74 -70 -72 -262 1 -135 4 -160 21 -189 30 -50 34
-51 356 -53 254 -1 284 4 314 54 17 28 20 52 20 197 0 190 -9 224 -61 246 -26
11 -93 14 -296 13 -145 -1 -272 -4 -282 -6z m333 -65 c17 -15 31 -31 31 -36 0
-6 7 -13 15 -16 24 -9 65 -109 61 -149 -5 -49 -32 -100 -74 -139 -50 -46 -92
-73 -92 -59 0 6 -4 11 -10 11 -5 0 -19 8 -31 17 -139 115 -142 229 -11 359 57
57 57 57 111 12z"/>
<path d="M352 587 c-7 -8 -8 -18 -4 -23 4 -5 3 -6 -2 -2 -9 8 -36 -8 -36 -21
0 -4 16 -8 37 -9 33 -3 35 -1 22 15 -8 9 -9 14 -3 10 6 -3 10 2 9 13 -2 27
-10 33 -23 17z"/>
<path d="M402 560 c1 -30 6 -39 16 -35 7 3 20 5 28 5 21 0 17 22 -10 48 -33
30 -37 28 -34 -18z"/>
<path d="M445 505 c-38 -11 -40 -14 -41 -53 -1 -46 6 -50 53 -30 30 12 38 15
52 17 13 1 3 53 -12 67 -9 8 -23 8 -52 -1z"/>
<path d="M270 474 c-7 -19 -9 -38 -6 -41 3 -4 6 1 6 10 0 10 4 17 10 17 5 0 7
-7 4 -15 -6 -14 11 -20 39 -16 4 0 7 -3 7 -9 0 -15 37 -12 42 3 11 33 2 70
-17 74 -72 14 -73 14 -85 -23z"/>
<path d="M250 401 c0 -4 10 -13 23 -20 l22 -11 -23 6 c-23 6 -23 6 -6 -27 16
-32 17 -32 31 -13 14 18 14 18 11 0 -2 -11 3 -20 12 -21 8 -2 20 -4 25 -5 28
-6 34 0 25 25 -8 20 -6 23 6 18 14 -5 14 -3 4 14 -7 11 -25 20 -43 21 -16 1
-35 6 -41 9 -17 11 -46 14 -46 4z"/>
<path d="M504 402 c3 -4 -10 -9 -27 -10 -67 -3 -72 -6 -72 -46 0 -20 3 -36 8
-36 4 0 19 0 33 0 14 0 23 4 20 9 -3 4 6 7 19 5 14 -1 23 2 20 6 -3 5 0 12 6
15 5 4 8 13 5 21 -3 8 -2 14 3 14 4 0 8 7 8 15 0 8 -7 15 -14 15 -8 0 -12 -4
-9 -8z"/>
<path d="M316 271 c11 -10 21 -17 23 -15 2 2 9 -4 16 -13 11 -14 12 -14 18 6
6 23 1 27 -47 35 -28 5 -28 5 -10 -13z"/>
<path d="M425 280 c-10 -3 -20 -17 -22 -29 -2 -15 1 -21 9 -18 7 2 12 10 11
16 -2 6 0 10 5 10 18 -3 30 2 35 14 6 15 -8 17 -38 7z"/>
</g>
</svg>
